<svg width="20" height="18" viewBox="0 0 20 18" fill="none" xmlns="http://www.w3.org/2000/svg">
<path d="M18.25 0.75H1.75C1.35218 0.75 0.970644 0.908035 0.68934 1.18934C0.408035 1.47064 0.25 1.85218 0.25 2.25V15.75C0.25 16.1478 0.408035 16.5294 0.68934 16.8107C0.970644 17.092 1.35218 17.25 1.75 17.25H18.25C18.6478 17.25 19.0294 17.092 19.3107 16.8107C19.592 16.5294 19.75 16.1478 19.75 15.75V2.25C19.75 1.85218 19.592 1.47064 19.3107 1.18934C19.0294 0.908035 18.6478 0.75 18.25 0.75ZM16.75 13.5C16.9489 13.5 17.1397 13.579 17.2803 13.7197C17.421 13.8603 17.5 14.0511 17.5 14.25C17.5 14.4489 17.421 14.6397 17.2803 14.7803C17.1397 14.921 16.9489 15 16.75 15H3.25C3.05109 15 2.86032 14.921 2.71967 14.7803C2.57902 14.6397 2.5 14.4489 2.5 14.25V3.75C2.5 3.55109 2.57902 3.36032 2.71967 3.21967C2.86032 3.07902 3.05109 3 3.25 3C3.44891 3 3.63968 3.07902 3.78033 3.21967C3.92098 3.36032 4 3.55109 4 3.75V9.64875L7.27 6.92344C7.39426 6.81989 7.54866 6.75929 7.71018 6.75067C7.8717 6.74205 8.03168 6.78588 8.16625 6.87562L12.1975 9.56531L16.2672 6.17344C16.4201 6.04613 16.6173 5.98479 16.8155 6.0029C17.0136 6.02101 17.1964 6.11709 17.3237 6.27C17.4511 6.42291 17.5124 6.62014 17.4943 6.81828C17.4762 7.01642 17.3801 7.19926 17.2272 7.32656L12.7272 11.0766C12.6029 11.1801 12.4485 11.2407 12.287 11.2493C12.1255 11.2579 11.9655 11.2141 11.8309 11.1244L7.79969 8.43469L4 11.6016V13.5H16.75Z" fill="#6D758F"/>
</svg>
