<?xml version="1.0" standalone="no"?>
<!DOCTYPE svg PUBLIC "-//W3C//DTD SVG 20010904//EN"
 "http://www.w3.org/TR/2001/REC-SVG-20010904/DTD/svg10.dtd">
<svg version="1.0" xmlns="http://www.w3.org/2000/svg"
 width="256.000000pt" height="256.000000pt" viewBox="0 0 256.000000 256.000000"
 preserveAspectRatio="xMidYMid meet">
  <g transform="translate(0.000000,256.000000) scale(0.100000,-0.100000)"
  fill="#000000" stroke="none">
    <path d="M1237 2042 c-9 -10 -17 -33 -17 -50 0 -68 88 -81 119 -18 12 25 11
    31 -6 55 -25 33 -72 40 -96 13z"/>
    <path d="M512 1643 c-42 -20 -69 -55 -82 -105 -7 -24 -10 -175 -8 -416 3 -356
    4 -379 23 -411 11 -19 33 -43 48 -55 28 -21 34 -21 775 -23 l747 -3 40 23 c26
    14 48 37 63 67 22 45 23 46 20 442 -3 383 -4 398 -24 424 -50 68 -54 69 -296
    72 l-221 3 15 -23 c8 -13 27 -29 42 -36 29 -15 34 -43 10 -67 -14 -14 -19 -14
    -37 -2 -12 8 -24 23 -27 33 -3 11 -18 36 -34 57 l-28 37 -258 0 -258 0 -31
    -39 c-17 -21 -31 -46 -31 -54 0 -20 -38 -47 -56 -40 -32 12 -26 44 15 82 23
    21 41 41 41 44 0 4 -93 7 -207 7 -171 0 -214 -3 -241 -17z m345 -225 c13 -12
    23 -30 23 -40 0 -24 -31 -23 -53 2 -18 22 -43 25 -67 10 -10 -6 -15 -26 -15
    -60 0 -34 5 -54 15 -60 24 -15 49 -12 67 10 21 24 53 26 53 3 0 -9 -10 -27
    -22 -40 -30 -32 -97 -32 -135 1 -25 21 -28 31 -28 84 0 50 4 65 24 86 33 35
    103 37 138 4z m208 -3 c21 -20 25 -34 25 -85 0 -79 -26 -110 -93 -110 -65 0
    -92 32 -92 110 0 48 5 63 24 84 34 36 101 37 136 1z m133 -25 c15 -27 29 -50
    32 -50 3 0 17 23 32 50 19 34 34 50 48 50 19 0 20 -7 20 -111 0 -109 0 -110
    -22 -107 -18 2 -23 10 -24 33 -3 72 -3 72 -22 43 -22 -37 -48 -35 -69 5 l-18
    32 -3 -57 c-3 -49 -6 -58 -21 -58 -23 0 -26 11 -26 75 2 134 4 145 25 145 14
    0 29 -16 48 -50z m222 -61 c0 -109 0 -110 -22 -107 -22 3 -23 8 -26 97 -3 108
    0 121 28 121 19 0 20 -6 20 -111z m129 49 l41 -63 0 63 c0 59 1 62 25 62 l25
    0 0 -110 c0 -107 -1 -110 -22 -110 -17 0 -34 17 -63 62 l-40 63 -3 -63 c-3
    -59 -5 -63 -25 -60 -21 3 -22 9 -25 97 -1 52 -1 100 2 108 11 29 44 12 82 -44z"/>
    <path d="M966 1384 c-30 -30 -16 -111 20 -120 37 -9 54 12 54 65 0 67 -36 93
    -74 55z"/>
    <path d="M1132 1018 c-7 -7 -12 -34 -12 -60 0 -41 3 -50 23 -57 44 -17 67 5
    67 65 0 45 -14 64 -45 64 -12 0 -26 -5 -33 -12z"/>
    <path d="M1340 1010 c-6 -12 -10 -37 -8 -57 4 -43 32 -65 66 -52 19 7 22 16
    22 57 0 26 -5 53 -12 60 -19 19 -56 14 -68 -8z"/>
  </g>
</svg>
