<svg width="74" height="23" viewBox="0 0 74 23" fill="none" xmlns="http://www.w3.org/2000/svg">
<path d="M36.0005 4.46008C36.0005 7.19873 34.4183 8.92017 31.8603 8.92017C29.3288 8.92017 27.7202 7.19873 27.7202 4.46008C27.7202 1.72144 29.3024 0 31.8603 0C34.3919 0 36.0005 1.72144 36.0005 4.46008ZM29.3288 4.46008C29.3288 6.39018 30.3045 7.58997 31.8603 7.58997C33.4162 7.58997 34.3919 6.3641 34.3919 4.46008C34.3919 2.52999 33.3898 1.3302 31.8603 1.3302C30.3045 1.30412 29.3288 2.52999 29.3288 4.46008Z" fill="white"/>
<path d="M41.3008 4.69485C41.169 4.0167 40.6943 3.52114 39.9032 3.52114C38.9539 3.52114 38.3473 4.30361 38.3473 5.60773C38.3473 6.93793 38.9539 7.69432 39.9296 7.69432C40.6943 7.69432 41.1953 7.277 41.3272 6.54669H42.7512C42.6193 7.95514 41.5381 8.89411 39.9296 8.89411C38.0573 8.89411 36.8442 7.66824 36.8442 5.60773C36.8442 3.5733 38.0573 2.32135 39.9032 2.32135C41.5909 2.32135 42.6457 3.39073 42.7512 4.72093H41.3008V4.69485Z" fill="white"/>
<path d="M45.5462 0.938965V2.42566H46.7592V3.57328H45.5462V6.85966C45.5462 7.38131 45.7835 7.61605 46.3109 7.61605C46.4428 7.61605 46.6537 7.61605 46.7328 7.58997V8.73759C46.5746 8.76367 46.2846 8.78976 45.9417 8.78976C44.5705 8.78976 44.0167 8.29419 44.0167 7.06832V3.57328H43.0938V2.42566H44.0167V0.938965H45.5462Z" fill="white"/>
<path d="M47.4453 6.93791C47.4453 5.81637 48.3155 5.13823 49.8714 5.0339L51.5591 4.92957V4.48617C51.5591 3.83411 51.1108 3.44287 50.3724 3.44287C49.6604 3.44287 49.2121 3.78194 49.1066 4.30359H47.709C47.7881 3.12988 48.7902 2.26917 50.4252 2.26917C52.0074 2.26917 53.0358 3.1038 53.0358 4.38184V8.73759H51.6118V7.72038H51.5854C51.2163 8.39852 50.4252 8.84192 49.5813 8.84192C48.3419 8.868 47.4453 8.08553 47.4453 6.93791ZM51.5591 6.41626V5.9207L50.0823 5.99894C49.3703 6.05111 48.9484 6.3641 48.9484 6.85966C48.9484 7.38131 49.3703 7.72038 50.0296 7.72038C50.8734 7.74646 51.5591 7.17265 51.5591 6.41626Z" fill="white"/>
<path d="M54.1958 9.23314H55.6989C55.8572 9.7287 56.4109 10.0417 57.1229 10.0417C58.0986 10.0417 58.6524 9.49396 58.6524 8.68541V7.61603H58.626C58.2832 8.29417 57.5449 8.76365 56.6219 8.76365C55.0397 8.76365 53.9849 7.53778 53.9849 5.55552C53.9849 3.54718 55.0133 2.29523 56.6483 2.29523C57.5712 2.29523 58.3096 2.76471 58.6524 3.49502H58.6788V2.39956H60.1555V8.63324C60.1555 10.146 58.9425 11.1371 57.0702 11.1371C55.488 11.1371 54.354 10.3547 54.1958 9.23314ZM58.6524 5.5816C58.6524 4.35573 58.0195 3.54718 57.0702 3.54718C56.1209 3.54718 55.5143 4.32965 55.5143 5.5816C55.5143 6.83356 56.1209 7.58995 57.0702 7.58995C58.0459 7.58995 58.6524 6.80748 58.6524 5.5816Z" fill="white"/>
<path d="M61.1313 5.5816C61.1313 3.54718 62.3708 2.29523 64.2167 2.29523C66.0626 2.29523 67.302 3.54718 67.302 5.5816C67.302 7.64211 66.089 8.86798 64.2167 8.86798C62.3444 8.89406 61.1313 7.64211 61.1313 5.5816ZM65.7989 5.5816C65.7989 4.22532 65.1924 3.46893 64.2167 3.46893C63.2673 3.46893 62.6345 4.2514 62.6345 5.5816C62.6345 6.93789 63.241 7.69428 64.2167 7.69428C65.1924 7.69428 65.7989 6.93789 65.7989 5.5816Z" fill="white"/>
<path d="M68.3037 2.42568H69.7541V3.52114H69.7804C70.1233 2.76475 70.8089 2.32135 71.7846 2.32135C73.2086 2.32135 73.9997 3.20815 73.9997 4.66876V8.7637H72.4966V4.95567C72.4966 4.06887 72.0747 3.54722 71.2044 3.54722C70.3342 3.54722 69.7804 4.1732 69.7804 5.06V8.73761H68.2773V2.42568H68.3037Z" fill="white"/>
<path d="M28.894 12.6001H30.2908L32.7193 18.5298H32.8087L35.2372 12.6001H36.6339V20.2283H35.5389V14.7083H35.4681L33.2184 20.2171H32.3096L30.0599 14.7045H29.9891V20.2283H28.894V12.6001Z" fill="white"/>
<path d="M39.8828 20.3549C39.5203 20.3549 39.1925 20.2878 38.8995 20.1538C38.6065 20.0172 38.3743 19.8198 38.203 19.5615C38.0341 19.3033 37.9497 18.9867 37.9497 18.6117C37.9497 18.2889 38.0118 18.0232 38.1359 17.8147C38.2601 17.6061 38.4277 17.4409 38.6387 17.3193C38.8498 17.1976 39.0857 17.1057 39.3464 17.0436C39.6072 16.9816 39.8729 16.9344 40.1435 16.9021C40.4862 16.8624 40.7643 16.8301 40.9778 16.8053C41.1914 16.778 41.3466 16.7345 41.4434 16.6749C41.5403 16.6153 41.5887 16.5185 41.5887 16.3844V16.3583C41.5887 16.033 41.4968 15.781 41.3131 15.6022C41.1318 15.4234 40.8611 15.334 40.5011 15.334C40.1261 15.334 39.8306 15.4172 39.6146 15.5836C39.4011 15.7475 39.2533 15.93 39.1714 16.1311L38.1247 15.8927C38.2489 15.5451 38.4302 15.2645 38.6685 15.0509C38.9094 14.8349 39.1863 14.6785 39.4991 14.5816C39.812 14.4823 40.141 14.4326 40.4862 14.4326C40.7146 14.4326 40.9567 14.46 41.2125 14.5146C41.4707 14.5667 41.7116 14.6636 41.9351 14.8051C42.1611 14.9466 42.346 15.149 42.4901 15.4122C42.6341 15.673 42.7061 16.0119 42.7061 16.4291V20.2283H41.6185V19.4461H41.5738C41.5018 19.5901 41.3938 19.7316 41.2498 19.8707C41.1057 20.0097 40.9207 20.1252 40.6948 20.2171C40.4688 20.309 40.1981 20.3549 39.8828 20.3549ZM40.1249 19.461C40.4328 19.461 40.696 19.4001 40.9145 19.2785C41.1355 19.1568 41.3031 18.9979 41.4174 18.8017C41.5341 18.603 41.5924 18.3907 41.5924 18.1648V17.4273C41.5527 17.467 41.4757 17.5043 41.3615 17.539C41.2498 17.5713 41.1219 17.5999 40.9778 17.6247C40.8338 17.647 40.6935 17.6682 40.557 17.688C40.4204 17.7054 40.3062 17.7203 40.2143 17.7327C39.9983 17.76 39.8008 17.806 39.6221 17.8705C39.4458 17.9351 39.3042 18.0282 39.1974 18.1499C39.0932 18.2691 39.041 18.428 39.041 18.6266C39.041 18.9023 39.1428 19.1108 39.3464 19.2524C39.5501 19.3914 39.8095 19.461 40.1249 19.461Z" fill="white"/>
<path d="M45.3031 16.8313V20.2283H44.1895V14.5071H45.2584V15.4383H45.3292C45.4608 15.1354 45.6669 14.892 45.9475 14.7083C46.2306 14.5245 46.5869 14.4326 47.0165 14.4326C47.4063 14.4326 47.7478 14.5146 48.0408 14.6785C48.3338 14.8399 48.561 15.0807 48.7224 15.4011C48.8838 15.7214 48.9645 16.1174 48.9645 16.5892V20.2283H47.8508V16.7233C47.8508 16.3086 47.7428 15.9846 47.5268 15.7512C47.3107 15.5153 47.014 15.3973 46.6366 15.3973C46.3783 15.3973 46.1486 15.4532 45.9475 15.5649C45.7489 15.6767 45.5912 15.8406 45.4745 16.0566C45.3602 16.2702 45.3031 16.5284 45.3031 16.8313Z" fill="white"/>
<path d="M52.123 20.3549C51.7605 20.3549 51.4327 20.2878 51.1397 20.1538C50.8467 20.0172 50.6145 19.8198 50.4432 19.5615C50.2743 19.3033 50.1899 18.9867 50.1899 18.6117C50.1899 18.2889 50.252 18.0232 50.3762 17.8147C50.5003 17.6061 50.6679 17.4409 50.879 17.3193C51.0901 17.1976 51.326 17.1057 51.5867 17.0436C51.8474 16.9816 52.1131 16.9344 52.3838 16.9021C52.7264 16.8624 53.0045 16.8301 53.2181 16.8053C53.4316 16.778 53.5868 16.7345 53.6837 16.6749C53.7805 16.6153 53.8289 16.5185 53.8289 16.3844V16.3583C53.8289 16.033 53.7371 15.781 53.5533 15.6022C53.372 15.4234 53.1014 15.334 52.7413 15.334C52.3664 15.334 52.0709 15.4172 51.8549 15.5836C51.6413 15.7475 51.4936 15.93 51.4116 16.1311L50.365 15.8927C50.4891 15.5451 50.6704 15.2645 50.9088 15.0509C51.1497 14.8349 51.4265 14.6785 51.7394 14.5816C52.0523 14.4823 52.3813 14.4326 52.7264 14.4326C52.9549 14.4326 53.197 14.46 53.4527 14.5146C53.711 14.5667 53.9519 14.6636 54.1753 14.8051C54.4013 14.9466 54.5863 15.149 54.7303 15.4122C54.8743 15.673 54.9463 16.0119 54.9463 16.4291V20.2283H53.8587V19.4461H53.814C53.742 19.5901 53.634 19.7316 53.49 19.8707C53.346 20.0097 53.161 20.1252 52.935 20.2171C52.7091 20.309 52.4384 20.3549 52.123 20.3549ZM52.3651 19.461C52.673 19.461 52.9363 19.4001 53.1548 19.2785C53.3758 19.1568 53.5434 18.9979 53.6576 18.8017C53.7743 18.603 53.8327 18.3907 53.8327 18.1648V17.4273C53.7929 17.467 53.716 17.5043 53.6017 17.539C53.49 17.5713 53.3621 17.5999 53.2181 17.6247C53.0741 17.647 52.9338 17.6682 52.7972 17.688C52.6606 17.7054 52.5464 17.7203 52.4545 17.7327C52.2385 17.76 52.0411 17.806 51.8623 17.8705C51.686 17.9351 51.5445 18.0282 51.4377 18.1499C51.3334 18.2691 51.2813 18.428 51.2813 18.6266C51.2813 18.9023 51.3831 19.1108 51.5867 19.2524C51.7903 19.3914 52.0498 19.461 52.3651 19.461Z" fill="white"/>
<path d="M58.8284 22.4929C58.374 22.4929 57.9829 22.4333 57.6551 22.3141C57.3298 22.1949 57.0641 22.0372 56.858 21.841C56.6519 21.6449 56.498 21.4301 56.3962 21.1967L57.3534 20.8019C57.4205 20.9111 57.5099 21.0266 57.6216 21.1482C57.7358 21.2724 57.8898 21.3779 58.0835 21.4648C58.2796 21.5518 58.5317 21.5952 58.8396 21.5952C59.2617 21.5952 59.6106 21.4922 59.8862 21.2861C60.1618 21.0824 60.2996 20.7572 60.2996 20.3102V19.1853H60.2289C60.1618 19.307 60.065 19.4423 59.9384 19.5913C59.8142 19.7403 59.6429 19.8694 59.4243 19.9787C59.2058 20.088 58.9215 20.1426 58.5714 20.1426C58.1195 20.1426 57.7122 20.0371 57.3497 19.826C56.9896 19.6124 56.7041 19.2983 56.493 18.8836C56.2844 18.4665 56.1801 17.9537 56.1801 17.3453C56.1801 16.737 56.2832 16.2155 56.4893 15.781C56.6979 15.3464 56.9834 15.0137 57.346 14.7828C57.7085 14.5493 58.1195 14.4326 58.5788 14.4326C58.9339 14.4326 59.2207 14.4922 59.4392 14.6114C59.6578 14.7281 59.8279 14.8647 59.9495 15.0211C60.0737 15.1776 60.1693 15.3154 60.2363 15.4346H60.3183V14.5071H61.4096V20.3549C61.4096 20.8465 61.2954 21.2501 61.0669 21.5654C60.8385 21.8808 60.5293 22.1142 60.1395 22.2657C59.7521 22.4171 59.3151 22.4929 58.8284 22.4929ZM58.8172 19.2189C59.1375 19.2189 59.4082 19.1444 59.6292 18.9954C59.8527 18.8439 60.0215 18.6279 60.1358 18.3473C60.2525 18.0642 60.3108 17.7253 60.3108 17.3304C60.3108 16.9456 60.2537 16.6066 60.1395 16.3136C60.0253 16.0206 59.8576 15.7922 59.6367 15.6283C59.4157 15.4619 59.1425 15.3787 58.8172 15.3787C58.482 15.3787 58.2027 15.4656 57.9792 15.6394C57.7557 15.8108 57.5868 16.0442 57.4726 16.3397C57.3609 16.6352 57.305 16.9654 57.305 17.3304C57.305 17.7054 57.3621 18.0344 57.4763 18.3175C57.5906 18.6006 57.7594 18.8216 57.9829 18.9805C58.2089 19.1394 58.487 19.2189 58.8172 19.2189Z" fill="white"/>
<path d="M65.3689 20.3437C64.8053 20.3437 64.3198 20.2233 63.9126 19.9824C63.5078 19.7391 63.195 19.3976 62.974 18.9581C62.7555 18.5161 62.6462 17.9984 62.6462 17.4049C62.6462 16.8189 62.7555 16.3024 62.974 15.8555C63.195 15.4085 63.5029 15.0596 63.8977 14.8088C64.295 14.558 64.7593 14.4326 65.2907 14.4326C65.6135 14.4326 65.9264 14.486 66.2293 14.5928C66.5323 14.6996 66.8042 14.8672 67.045 15.0956C67.2859 15.3241 67.4759 15.6208 67.6149 15.9858C67.754 16.3484 67.8235 16.7891 67.8235 17.3081V17.7029H63.2757V16.8686H66.7322C66.7322 16.5756 66.6726 16.3161 66.5534 16.0901C66.4342 15.8617 66.2666 15.6817 66.0506 15.55C65.837 15.4184 65.5862 15.3526 65.2982 15.3526C64.9853 15.3526 64.7122 15.4296 64.4787 15.5836C64.2478 15.735 64.069 15.9337 63.9424 16.1795C63.8182 16.4229 63.7562 16.6873 63.7562 16.9729V17.6247C63.7562 18.0071 63.8232 18.3324 63.9573 18.6006C64.0939 18.8687 64.2838 19.0736 64.5272 19.2151C64.7705 19.3542 65.0548 19.4237 65.3801 19.4237C65.5912 19.4237 65.7836 19.3939 65.9574 19.3343C66.1313 19.2722 66.2815 19.1804 66.4081 19.0587C66.5348 18.937 66.6316 18.7868 66.6987 18.608L67.7527 18.798C67.6683 19.1084 67.5168 19.3803 67.2983 19.6137C67.0823 19.8446 66.8104 20.0246 66.4826 20.1538C66.1573 20.2804 65.7861 20.3437 65.3689 20.3437Z" fill="white"/>
<path d="M69.0592 20.2283V14.5071H70.1356V15.416H70.1952C70.2995 15.1081 70.4832 14.8659 70.7465 14.6896C71.0121 14.5109 71.3126 14.4215 71.6478 14.4215C71.7174 14.4215 71.7993 14.424 71.8937 14.4289C71.9905 14.4339 72.0662 14.4401 72.1209 14.4475V15.5128C72.0762 15.5004 71.9967 15.4867 71.8825 15.4718C71.7683 15.4544 71.654 15.4458 71.5398 15.4458C71.2766 15.4458 71.0419 15.5016 70.8358 15.6134C70.6322 15.7226 70.4708 15.8753 70.3516 16.0715C70.2324 16.2652 70.1729 16.4862 70.1729 16.7345V20.2283H69.0592Z" fill="white"/>
<g clip-path="url(#clip0_48_789)">
<path d="M14.9452 22.4758H6.85966C6.46843 22.4758 6.10327 22.3193 5.84245 22.0585L0.417318 16.5812C0.156494 16.3204 0 15.9552 0 15.564V7.63495C0 7.24372 0.156494 6.87856 0.417318 6.61774L5.86853 1.16652C6.12936 0.905701 6.49451 0.749207 6.88574 0.749207H14.8148C15.206 0.749207 15.5712 0.905701 15.832 1.16652L21.3354 6.6699C21.5962 6.93073 21.7527 7.29588 21.7527 7.68712V15.9291C21.7527 16.3204 21.5962 16.6855 21.3093 16.9724L15.9363 22.0585C15.6755 22.3193 15.3103 22.4758 14.9452 22.4758ZM7.43347 19.6068H14.3714L18.8576 15.3293V8.28701L14.2149 3.61827H7.45956L2.86906 8.20876V14.9641L7.43347 19.6068Z" fill="white"/>
<path d="M11.1371 15.9813C13.586 15.9813 15.5711 13.9961 15.5711 11.5473C15.5711 9.09845 13.586 7.11328 11.1371 7.11328C8.6883 7.11328 6.70312 9.09845 6.70312 11.5473C6.70312 13.9961 8.6883 15.9813 11.1371 15.9813Z" fill="white"/>
</g>
<defs>
<clipPath id="clip0_48_789">
<rect width="21.7266" height="21.7266" fill="white" transform="translate(0 0.749207)"/>
</clipPath>
</defs>
</svg>
