<svg width="121" height="108" viewBox="0 0 121 108" fill="none" xmlns="http://www.w3.org/2000/svg">
<rect x="0.961426" y="0.5" width="119" height="106.469" rx="1.5" fill="white" stroke="#D9D9D9"/>
<path d="M71.4614 42.7344H49.4614C48.931 42.7344 48.4223 42.9451 48.0472 43.3202C47.6721 43.6952 47.4614 44.2039 47.4614 44.7344V62.7344C47.4614 63.2648 47.6721 63.7735 48.0472 64.1486C48.4223 64.5237 48.931 64.7344 49.4614 64.7344H71.4614C71.9919 64.7344 72.5006 64.5237 72.8756 64.1486C73.2507 63.7735 73.4614 63.2648 73.4614 62.7344V44.7344C73.4614 44.2039 73.2507 43.6952 72.8756 43.3202C72.5006 42.9451 71.9919 42.7344 71.4614 42.7344ZM63.9614 48.7344C64.2581 48.7344 64.5481 48.8223 64.7948 48.9872C65.0415 49.152 65.2337 49.3863 65.3472 49.6603C65.4608 49.9344 65.4905 50.236 65.4326 50.527C65.3747 50.818 65.2319 51.0853 65.0221 51.295C64.8123 51.5048 64.545 51.6477 64.2541 51.7056C63.9631 51.7634 63.6615 51.7337 63.3874 51.6202C63.1133 51.5067 62.879 51.3144 62.7142 51.0677C62.5494 50.8211 62.4614 50.531 62.4614 50.2344C62.4614 49.8366 62.6195 49.455 62.9008 49.1737C63.1821 48.8924 63.5636 48.7344 63.9614 48.7344ZM49.4614 62.7344V59.2344L55.9614 52.7344L65.9614 62.7344H49.4614ZM71.4614 62.7344H68.7902L64.2902 58.2344L66.7902 55.7344L71.4614 60.4069V62.7344Z" fill="#6D758F" fill-opacity="0.2"/>
</svg>
