<svg width="22" height="23" viewBox="0 0 22 23" fill="none" xmlns="http://www.w3.org/2000/svg">
<path d="M14.9452 22.4758H6.85966C6.46843 22.4758 6.10327 22.3193 5.84245 22.0585L0.417318 16.5812C0.156494 16.3204 0 15.9552 0 15.564V7.63495C0 7.24372 0.156494 6.87856 0.417318 6.61774L5.86853 1.16652C6.12936 0.905701 6.49451 0.749207 6.88574 0.749207H14.8148C15.206 0.749207 15.5712 0.905701 15.832 1.16652L21.3354 6.6699C21.5962 6.93073 21.7527 7.29588 21.7527 7.68712V15.9291C21.7527 16.3204 21.5962 16.6855 21.3093 16.9724L15.9363 22.0585C15.6755 22.3193 15.3103 22.4758 14.9452 22.4758ZM7.43347 19.6068H14.3714L18.8576 15.3293V8.28701L14.2149 3.61827H7.45956L2.86906 8.20876V14.9641L7.43347 19.6068Z" fill="white"/>
<path d="M11.1371 15.9813C13.586 15.9813 15.5711 13.9961 15.5711 11.5473C15.5711 9.09845 13.586 7.11328 11.1371 7.11328C8.6883 7.11328 6.70312 9.09845 6.70312 11.5473C6.70312 13.9961 8.6883 15.9813 11.1371 15.9813Z" fill="white"/>
</svg>
