<svg width="20" height="20" viewBox="0 0 20 20" fill="none" xmlns="http://www.w3.org/2000/svg">
<path fill-rule="evenodd" clip-rule="evenodd" d="M10 20C15.5229 20 20 15.5228 20 10C20 4.47716 15.5229 0 10 0C4.47715 0 0 4.47716 0 10C0 15.5228 4.47715 20 10 20ZM9.02296 13.1366V14.6417H10.8611V11.8783L12.4895 10.768L11.9714 10.0154L10.8611 10.7803V9.68236L12.5019 8.55972L11.9837 7.80719L10.8611 8.5844V7.38774H13.2297V5.83333H6.66666V7.38774H9.02296V9.84273L7.46854 10.9037L7.98668 11.6562L9.02296 10.9407V12.0387L7.46854 13.0996L7.97434 13.8521L9.02296 13.1366Z" fill="#6D758F"/>
</svg>
