<svg width="24" height="24" viewBox="0 0 24 24" fill="none" xmlns="http://www.w3.org/2000/svg">
<path d="M22.3071 10.0509C22.2862 9.9453 22.2428 9.84543 22.1799 9.75807C22.1169 9.67072 22.0359 9.59793 21.9424 9.54467L19.1458 7.95092L19.1346 4.79904C19.1342 4.69049 19.1103 4.58331 19.0645 4.4849C19.0187 4.38649 18.9521 4.29919 18.8692 4.22904C17.8548 3.37095 16.6866 2.71336 15.4267 2.29123C15.3275 2.25765 15.2224 2.24522 15.1181 2.25475C15.0138 2.26428 14.9126 2.29555 14.8211 2.34654L12.0002 3.92342L9.17643 2.34373C9.08488 2.29245 8.9836 2.26094 8.87911 2.25125C8.77463 2.24156 8.66928 2.2539 8.56987 2.28748C7.31077 2.71232 6.14384 3.37246 5.13112 4.23279C5.0484 4.30284 4.98185 4.38999 4.93604 4.48823C4.89024 4.58647 4.86628 4.69347 4.8658 4.80186L4.85174 7.95654L2.05518 9.55029C1.96162 9.60356 1.88062 9.67634 1.81769 9.7637C1.75476 9.85105 1.71138 9.95093 1.69049 10.0565C1.43455 11.3427 1.43455 12.6667 1.69049 13.9528C1.71138 14.0584 1.75476 14.1583 1.81769 14.2456C1.88062 14.333 1.96162 14.4058 2.05518 14.459L4.85174 16.0528L4.86299 19.2056C4.86333 19.3142 4.88723 19.4213 4.93304 19.5197C4.97884 19.6182 5.04547 19.7055 5.1283 19.7756C6.14275 20.6337 7.31095 21.2913 8.5708 21.7134C8.67002 21.747 8.77517 21.7594 8.87947 21.7499C8.98378 21.7404 9.08494 21.7091 9.17643 21.6581L12.0002 20.0765L14.8239 21.6562C14.9357 21.7185 15.0616 21.7508 15.1896 21.75C15.2715 21.75 15.3528 21.7367 15.4305 21.7106C16.6893 21.286 17.8561 20.6265 18.8692 19.7672C18.952 19.6971 19.0185 19.61 19.0643 19.5117C19.1101 19.4135 19.1341 19.3065 19.1346 19.1981L19.1486 16.0434L21.9452 14.4497C22.0387 14.3964 22.1197 14.3236 22.1827 14.2363C22.2456 14.1489 22.289 14.049 22.3099 13.9434C22.5644 12.6583 22.5634 11.3357 22.3071 10.0509ZM12.0002 15.75C11.2585 15.75 10.5335 15.53 9.91679 15.118C9.30011 14.7059 8.81946 14.1203 8.53563 13.435C8.2518 12.7498 8.17754 11.9958 8.32223 11.2684C8.46693 10.541 8.82408 9.87278 9.34853 9.34833C9.87297 8.82388 10.5412 8.46673 11.2686 8.32204C11.996 8.17734 12.75 8.2516 13.4352 8.53543C14.1205 8.81926 14.7061 9.29991 15.1182 9.91659C15.5302 10.5333 15.7502 11.2583 15.7502 12C15.7502 12.9945 15.3551 13.9484 14.6518 14.6516C13.9486 15.3549 12.9947 15.75 12.0002 15.75Z" fill="white"/>
</svg>
