<svg width="25" height="24" viewBox="0 0 25 24" fill="none" xmlns="http://www.w3.org/2000/svg">
<path d="M8.77548 12.75C8.77543 13.3153 8.59291 13.8654 8.25509 14.3186C7.91726 14.7718 7.44217 15.1038 6.90048 15.2653V20.25C6.90048 20.4489 6.82147 20.6397 6.68081 20.7803C6.54016 20.921 6.3494 21 6.15048 21C5.95157 21 5.7608 20.921 5.62015 20.7803C5.4795 20.6397 5.40048 20.4489 5.40048 20.25V15.2653C4.85896 15.1037 4.38406 14.7715 4.04641 14.3184C3.70875 13.8652 3.52637 13.3151 3.52637 12.75C3.52637 12.1849 3.70875 11.6348 4.04641 11.1816C4.38406 10.7285 4.85896 10.3963 5.40048 10.2347V3.75C5.40048 3.55109 5.4795 3.36032 5.62015 3.21967C5.7608 3.07902 5.95157 3 6.15048 3C6.3494 3 6.54016 3.07902 6.68081 3.21967C6.82147 3.36032 6.90048 3.55109 6.90048 3.75V10.2347C7.44217 10.3962 7.91726 10.7282 8.25509 11.1814C8.59291 11.6346 8.77543 12.1847 8.77548 12.75ZM13.6505 5.73469V3.75C13.6505 3.55109 13.5715 3.36032 13.4308 3.21967C13.2902 3.07902 13.0994 3 12.9005 3C12.7016 3 12.5108 3.07902 12.3702 3.21967C12.2295 3.36032 12.1505 3.55109 12.1505 3.75V5.73469C11.609 5.89635 11.1341 6.22845 10.7964 6.68163C10.4588 7.13481 10.2764 7.68486 10.2764 8.25C10.2764 8.81514 10.4588 9.36519 10.7964 9.81837C11.1341 10.2715 11.609 10.6037 12.1505 10.7653V20.25C12.1505 20.4489 12.2295 20.6397 12.3702 20.7803C12.5108 20.921 12.7016 21 12.9005 21C13.0994 21 13.2902 20.921 13.4308 20.7803C13.5715 20.6397 13.6505 20.4489 13.6505 20.25V10.7653C14.192 10.6037 14.6669 10.2715 15.0046 9.81837C15.3422 9.36519 15.5246 8.81514 15.5246 8.25C15.5246 7.68486 15.3422 7.13481 15.0046 6.68163C14.6669 6.22845 14.192 5.89635 13.6505 5.73469ZM20.4005 13.2347V3.75C20.4005 3.55109 20.3215 3.36032 20.1808 3.21967C20.0402 3.07902 19.8494 3 19.6505 3C19.4516 3 19.2608 3.07902 19.1202 3.21967C18.9795 3.36032 18.9005 3.55109 18.9005 3.75V13.2347C18.359 13.3963 17.8841 13.7285 17.5464 14.1816C17.2088 14.6348 17.0264 15.1849 17.0264 15.75C17.0264 16.3151 17.2088 16.8652 17.5464 17.3184C17.8841 17.7715 18.359 18.1037 18.9005 18.2653V20.25C18.9005 20.4489 18.9795 20.6397 19.1202 20.7803C19.2608 20.921 19.4516 21 19.6505 21C19.8494 21 20.0402 20.921 20.1808 20.7803C20.3215 20.6397 20.4005 20.4489 20.4005 20.25V18.2653C20.942 18.1037 21.4169 17.7715 21.7546 17.3184C22.0922 16.8652 22.2746 16.3151 22.2746 15.75C22.2746 15.1849 22.0922 14.6348 21.7546 14.1816C21.4169 13.7285 20.942 13.3963 20.4005 13.2347Z" fill="#6D758F"/>
</svg>
