<svg width="16" height="16" viewBox="0 0 16 16" fill="none" xmlns="http://www.w3.org/2000/svg">
    <path d="M7.0625 14.875C7.0625 15.1236 6.96373 15.3621 6.78791 15.5379C6.6121 15.7137 6.37364 15.8125 6.125 15.8125H1.75C1.3356 15.8125 0.938171 15.6479 0.645146 15.3549C0.35212 15.0618 0.1875 14.6644 0.1875 14.25V1.75C0.1875 1.3356 0.35212 0.938171 0.645146 0.645146C0.938171 0.35212 1.3356 0.1875 1.75 0.1875H6.125C6.37364 0.1875 6.6121 0.286272 6.78791 0.462087C6.96373 0.637903 7.0625 0.87636 7.0625 1.125C7.0625 1.37364 6.96373 1.6121 6.78791 1.78791C6.6121 1.96373 6.37364 2.0625 6.125 2.0625H2.0625V13.9375H6.125C6.37364 13.9375 6.6121 14.0363 6.78791 14.2121C6.96373 14.3879 7.0625 14.6264 7.0625 14.875ZM15.5383 7.33672L12.4133 4.21172C12.2372 4.0356 11.9983 3.93665 11.7492 3.93665C11.5001 3.93665 11.2613 4.0356 11.0852 4.21172C10.909 4.38784 10.8101 4.62671 10.8101 4.87578C10.8101 5.12485 10.909 5.36372 11.0852 5.53984L12.6094 7.0625H6.125C5.87636 7.0625 5.6379 7.16127 5.46209 7.33709C5.28627 7.5129 5.1875 7.75136 5.1875 8C5.1875 8.24864 5.28627 8.4871 5.46209 8.66291C5.6379 8.83873 5.87636 8.9375 6.125 8.9375H12.6094L11.0844 10.4617C10.9083 10.6378 10.8093 10.8767 10.8093 11.1258C10.8093 11.3749 10.9083 11.6137 11.0844 11.7898C11.2605 11.966 11.4994 12.0649 11.7484 12.0649C11.9975 12.0649 12.2364 11.966 12.4125 11.7898L15.5375 8.66484C15.625 8.5778 15.6944 8.47435 15.7417 8.36042C15.7891 8.24649 15.8136 8.12433 15.8136 8.00094C15.8137 7.87755 15.7894 7.75537 15.7422 7.64138C15.6949 7.5274 15.6256 7.42387 15.5383 7.33672Z" fill="#6D758F"/>
</svg>
