<svg width="16" height="18" viewBox="0 0 16 18" fill="none" xmlns="http://www.w3.org/2000/svg">
    <path d="M15.6007 11.9633C14.9226 10.7969 14.5624 9.12266 14.5624 7.125C14.5624 5.38452 13.871 3.71532 12.6403 2.48461C11.4096 1.2539 9.74038 0.5625 7.9999 0.5625C6.25942 0.5625 4.59022 1.2539 3.35951 2.48461C2.1288 3.71532 1.4374 5.38452 1.4374 7.125C1.4374 9.12344 1.07881 10.7969 0.400681 11.9633C0.262307 12.2012 0.188958 12.4713 0.187998 12.7465C0.187038 13.0218 0.258501 13.2924 0.395212 13.5312C0.531058 13.7702 0.728231 13.9687 0.966374 14.106C1.20452 14.2433 1.475 14.3146 1.7499 14.3125H4.57646C4.65398 15.1669 5.04819 15.9614 5.68164 16.54C6.31509 17.1186 7.14199 17.4394 7.9999 17.4394C8.85781 17.4394 9.68471 17.1186 10.3182 16.54C10.9516 15.9614 11.3458 15.1669 11.4233 14.3125H14.2499C14.5244 14.3142 14.7944 14.2427 15.0321 14.1054C15.2698 13.9681 15.4666 13.7699 15.6022 13.5312C15.7395 13.2927 15.8117 13.0223 15.8114 12.7471C15.8111 12.4718 15.7385 12.2015 15.6007 11.9633ZM7.9999 15.5625C7.6397 15.5626 7.29053 15.4382 7.01149 15.2104C6.73246 14.9826 6.54069 14.6654 6.46865 14.3125H9.53115C9.45911 14.6654 9.26734 14.9826 8.98831 15.2104C8.70927 15.4382 8.3601 15.5626 7.9999 15.5625ZM2.27021 12.4375C2.96162 11.0312 3.3124 9.24531 3.3124 7.125C3.3124 5.8818 3.80626 4.68951 4.68534 3.81044C5.56441 2.93136 6.7567 2.4375 7.9999 2.4375C9.2431 2.4375 10.4354 2.93136 11.3145 3.81044C12.1935 4.68951 12.6874 5.8818 12.6874 7.125C12.6874 9.24453 13.0374 11.0312 13.7288 12.4375H2.27021Z" fill="#6D758F"/>
</svg>
