<svg width="111" height="25" viewBox="0 0 111 25" fill="none" xmlns="http://www.w3.org/2000/svg">
    <rect width="111" height="25" rx="6" fill="#6D758F" fill-opacity="0.2"/>
    <path d="M10.9588 17V8.27273H16.4006V9.40625H12.2756V11.7926H14.2273C14.875 11.7926 15.4247 11.8977 15.8764 12.108C16.331 12.3182 16.6776 12.6151 16.9162 12.9986C17.1577 13.3821 17.2784 13.8338 17.2784 14.3537C17.2784 14.8736 17.1577 15.3324 16.9162 15.7301C16.6776 16.1278 16.331 16.4389 15.8764 16.6634C15.4247 16.8878 14.875 17 14.2273 17H10.9588ZM12.2756 15.892H14.2273C14.6023 15.892 14.919 15.8182 15.1776 15.6705C15.4389 15.5227 15.6364 15.331 15.7699 15.0952C15.9063 14.8594 15.9744 14.6065 15.9744 14.3366C15.9744 13.9446 15.8239 13.608 15.5227 13.3267C15.2216 13.0426 14.7898 12.9006 14.2273 12.9006H12.2756V15.892ZM21.4886 17.1321C20.875 17.1321 20.3395 16.9915 19.8821 16.7102C19.4247 16.429 19.0696 16.0355 18.8168 15.5298C18.5639 15.0241 18.4375 14.4332 18.4375 13.7571C18.4375 13.0781 18.5639 12.4844 18.8168 11.9759C19.0696 11.4673 19.4247 11.0724 19.8821 10.7912C20.3395 10.5099 20.875 10.3693 21.4886 10.3693C22.1023 10.3693 22.6378 10.5099 23.0952 10.7912C23.5526 11.0724 23.9077 11.4673 24.1605 11.9759C24.4134 12.4844 24.5398 13.0781 24.5398 13.7571C24.5398 14.4332 24.4134 15.0241 24.1605 15.5298C23.9077 16.0355 23.5526 16.429 23.0952 16.7102C22.6378 16.9915 22.1023 17.1321 21.4886 17.1321ZM21.4929 16.0625C21.8906 16.0625 22.2202 15.9574 22.4815 15.7472C22.7429 15.5369 22.9361 15.2571 23.0611 14.9077C23.1889 14.5582 23.2528 14.1733 23.2528 13.7528C23.2528 13.3352 23.1889 12.9517 23.0611 12.6023C22.9361 12.25 22.7429 11.9673 22.4815 11.7543C22.2202 11.5412 21.8906 11.4347 21.4929 11.4347C21.0923 11.4347 20.7599 11.5412 20.4957 11.7543C20.2344 11.9673 20.0398 12.25 19.9119 12.6023C19.7869 12.9517 19.7244 13.3352 19.7244 13.7528C19.7244 14.1733 19.7869 14.5582 19.9119 14.9077C20.0398 15.2571 20.2344 15.5369 20.4957 15.7472C20.7599 15.9574 21.0923 16.0625 21.4929 16.0625ZM25.962 19.4545V10.4545H27.2063V11.5156H27.3129C27.3867 11.3793 27.4933 11.2216 27.6325 11.0426C27.7717 10.8636 27.9648 10.7074 28.212 10.5739C28.4592 10.4375 28.7859 10.3693 29.1921 10.3693C29.7205 10.3693 30.1921 10.5028 30.6069 10.7699C31.0217 11.0369 31.3469 11.4219 31.5827 11.9247C31.8214 12.4276 31.9407 13.0327 31.9407 13.7401C31.9407 14.4474 31.8228 15.054 31.587 15.5597C31.3512 16.0625 31.0273 16.4503 30.6154 16.723C30.2035 16.9929 29.7333 17.1278 29.2049 17.1278C28.8072 17.1278 28.4819 17.0611 28.229 16.9276C27.979 16.794 27.783 16.6378 27.641 16.4588C27.4989 16.2798 27.3896 16.1207 27.3129 15.9815H27.2362V19.4545H25.962ZM27.2106 13.7273C27.2106 14.1875 27.2773 14.5909 27.4109 14.9375C27.5444 15.2841 27.7376 15.5554 27.9904 15.7514C28.2433 15.9446 28.5529 16.0412 28.9194 16.0412C29.3001 16.0412 29.6183 15.9403 29.8739 15.7386C30.1296 15.5341 30.3228 15.2571 30.4535 14.9077C30.587 14.5582 30.6538 14.1648 30.6538 13.7273C30.6538 13.2955 30.5884 12.9077 30.4577 12.5639C30.3299 12.2202 30.1367 11.9489 29.8782 11.75C29.6225 11.5511 29.3029 11.4517 28.9194 11.4517C28.5501 11.4517 28.2376 11.5469 27.9819 11.7372C27.729 11.9276 27.5373 12.1932 27.4066 12.5341C27.2759 12.875 27.2106 13.2727 27.2106 13.7273ZM32.8526 17L32.8484 15.8963H33.0827C33.2646 15.8963 33.4165 15.858 33.5387 15.7812C33.6637 15.7017 33.766 15.5682 33.8455 15.3807C33.9251 15.1932 33.9862 14.9347 34.0288 14.6051C34.0714 14.2727 34.1026 13.8551 34.1225 13.3523L34.2376 10.4545H38.8058V17H37.5572V11.554H35.418L35.3157 13.7784C35.2901 14.3182 35.2347 14.7898 35.1495 15.1932C35.0671 15.5966 34.9464 15.9332 34.7873 16.2031C34.6282 16.4702 34.4237 16.6705 34.1737 16.804C33.9237 16.9347 33.6197 17 33.2617 17H32.8526ZM41.076 19.4545C40.8857 19.4545 40.7124 19.4389 40.5561 19.4077C40.3999 19.3793 40.2834 19.348 40.2067 19.3139L40.5135 18.2699C40.7464 18.3324 40.9538 18.3594 41.1357 18.3509C41.3175 18.3423 41.478 18.2741 41.6172 18.1463C41.7592 18.0185 41.8842 17.8097 41.9922 17.5199L42.1499 17.0852L39.755 10.4545H41.1186L42.7763 15.5341H42.8445L44.5021 10.4545H45.87L43.1726 17.8736C43.0476 18.2145 42.8885 18.5028 42.6953 18.7386C42.5021 18.9773 42.272 19.1563 42.005 19.2756C41.7379 19.3949 41.4283 19.4545 41.076 19.4545ZM47.8729 19.4545C47.6825 19.4545 47.5092 19.4389 47.353 19.4077C47.1967 19.3793 47.0803 19.348 47.0036 19.3139L47.3104 18.2699C47.5433 18.3324 47.7507 18.3594 47.9325 18.3509C48.1143 18.3423 48.2749 18.2741 48.4141 18.1463C48.5561 18.0185 48.6811 17.8097 48.7891 17.5199L48.9467 17.0852L46.5518 10.4545H47.9155L49.5732 15.5341H49.6413L51.299 10.4545H52.6669L49.9695 17.8736C49.8445 18.2145 49.6854 18.5028 49.4922 18.7386C49.299 18.9773 49.0689 19.1563 48.8018 19.2756C48.5348 19.3949 48.2251 19.4545 47.8729 19.4545ZM52.8097 17L52.8054 15.8963H53.0398C53.2216 15.8963 53.3736 15.858 53.4957 15.7812C53.6207 15.7017 53.723 15.5682 53.8026 15.3807C53.8821 15.1932 53.9432 14.9347 53.9858 14.6051C54.0284 14.2727 54.0597 13.8551 54.0795 13.3523L54.1946 10.4545H58.7628V17H57.5142V11.554H55.375L55.2727 13.7784C55.2472 14.3182 55.1918 14.7898 55.1065 15.1932C55.0241 15.5966 54.9034 15.9332 54.7443 16.2031C54.5852 16.4702 54.3807 16.6705 54.1307 16.804C53.8807 16.9347 53.5767 17 53.2188 17H52.8097ZM62.3668 17.1449C61.9521 17.1449 61.5771 17.0682 61.2418 16.9148C60.9066 16.7585 60.641 16.5327 60.445 16.2372C60.2518 15.9418 60.1552 15.5795 60.1552 15.1506C60.1552 14.7812 60.2262 14.4773 60.3683 14.2386C60.5103 14 60.7021 13.8111 60.9435 13.6719C61.185 13.5327 61.4549 13.4276 61.7532 13.3565C62.0515 13.2855 62.3555 13.2315 62.6651 13.1946C63.0572 13.1491 63.3754 13.1122 63.6197 13.0838C63.864 13.0526 64.0415 13.0028 64.1523 12.9347C64.2631 12.8665 64.3185 12.7557 64.3185 12.6023V12.5724C64.3185 12.2003 64.2134 11.9119 64.0032 11.7074C63.7958 11.5028 63.4862 11.4006 63.0742 11.4006C62.6452 11.4006 62.3072 11.4957 62.06 11.6861C61.8157 11.8736 61.6467 12.0824 61.5529 12.3125L60.3555 12.0398C60.4975 11.642 60.7049 11.321 60.9776 11.0767C61.2532 10.8295 61.57 10.6506 61.9279 10.5398C62.2859 10.4261 62.6623 10.3693 63.0572 10.3693C63.3185 10.3693 63.5955 10.4006 63.8881 10.4631C64.1836 10.5227 64.4592 10.6335 64.7148 10.7955C64.9734 10.9574 65.185 11.1889 65.3498 11.4901C65.5146 11.7884 65.5969 12.1761 65.5969 12.6534V17H64.3526V16.1051H64.3015C64.2191 16.2699 64.0955 16.4318 63.9308 16.5909C63.766 16.75 63.5543 16.8821 63.2958 16.9872C63.0373 17.0923 62.7276 17.1449 62.3668 17.1449ZM62.6438 16.1222C62.9961 16.1222 63.2972 16.0526 63.5472 15.9134C63.8001 15.7741 63.9918 15.5923 64.1225 15.3679C64.256 15.1406 64.3228 14.8977 64.3228 14.6392V13.7955C64.2773 13.8409 64.1893 13.8835 64.0586 13.9233C63.9308 13.9602 63.7844 13.9929 63.6197 14.0213C63.4549 14.0469 63.2944 14.071 63.1381 14.0938C62.9819 14.1136 62.8512 14.1307 62.7461 14.1449C62.4989 14.1761 62.2731 14.2287 62.0685 14.3026C61.8668 14.3764 61.7049 14.483 61.5827 14.6222C61.4634 14.7585 61.4038 14.9403 61.4038 15.1676C61.4038 15.483 61.5202 15.7216 61.7532 15.8835C61.9862 16.0426 62.283 16.1222 62.6438 16.1222ZM66.7784 17L66.7741 15.8963H67.0085C67.1903 15.8963 67.3423 15.858 67.4645 15.7812C67.5895 15.7017 67.6918 15.5682 67.7713 15.3807C67.8509 15.1932 67.9119 14.9347 67.9545 14.6051C67.9972 14.2727 68.0284 13.8551 68.0483 13.3523L68.1634 10.4545H72.7315V17H71.483V11.554H69.3438L69.2415 13.7784C69.2159 14.3182 69.1605 14.7898 69.0753 15.1932C68.9929 15.5966 68.8722 15.9332 68.7131 16.2031C68.554 16.4702 68.3494 16.6705 68.0994 16.804C67.8494 16.9347 67.5455 17 67.1875 17H66.7784ZM73.619 11.554V10.4545H79.1417V11.554H77.0067V17H75.7624V11.554H73.619Z" fill="#6D758F"/>
    <path d="M98.8312 13.555L96.165 17.555C96.0737 17.6919 95.9499 17.8041 95.8048 17.8818C95.6597 17.9594 95.4977 18 95.3331 18H85.5C85.4088 18 85.3193 17.975 85.2412 17.9278C85.1632 17.8806 85.0995 17.813 85.0572 17.7322C85.0148 17.6514 84.9954 17.5605 85.0009 17.4695C85.0065 17.3784 85.0369 17.2907 85.0887 17.2156L88 13L85.0887 8.78437C85.0369 8.70935 85.0065 8.62155 85.0009 8.5305C84.9954 8.43945 85.0148 8.34861 85.0572 8.26783C85.0995 8.18704 85.1632 8.11937 85.2412 8.07217C85.3193 8.02496 85.4088 8 85.5 8H95.3331C95.4977 8 95.6597 8.04061 95.8048 8.11823C95.9499 8.19586 96.0737 8.3081 96.165 8.445L98.8312 12.445C98.9409 12.6093 98.9994 12.8025 98.9994 13C98.9994 13.1975 98.9409 13.3907 98.8312 13.555Z" fill="#6D758F"/>
</svg>
